<?xml version="1.0" encoding="utf-8"?>
<!-- Generator: Adobe Illustrator 19.0.0, SVG Export Plug-In . SVG Version: 6.00 Build 0)  -->
<svg version="1.1" id="Layer_1" xmlns="http://www.w3.org/2000/svg" xmlns:xlink="http://www.w3.org/1999/xlink" x="0px" y="0px"
	 viewBox="0 0 612 792" style="enable-background:new 0 0 612 792;" xml:space="preserve">
<style type="text/css">
	.st0{fill:#89242E;}
	.st1{fill-rule:evenodd;clip-rule:evenodd;fill:#89242E;}
</style>
<g id="XMLID_50_">
	<g id="XMLID_458_">
		<path id="XMLID_472_" class="st0" d="M156.5,465.3v-62.1h25h3.1c8.4,0,14.1,1.5,17,4.4c2.9,2.9,4.4,8.6,4.4,16.9
			c0,8.3-1.4,13.8-4.2,16.6c-2.8,2.7-8.4,4.1-16.9,4.1l-2.7,0h-13.9v20.1H156.5z M168.3,435.3h13.4c5.3,0,8.7-0.6,10.2-1.8
			c1.4-1.2,2.2-4.1,2.2-8.7c0-5.2-0.6-8.5-1.8-9.8c-1.2-1.3-4.3-1.9-9.3-1.9h-14.6V435.3z"/>
		<path id="XMLID_470_" class="st0" d="M225.2,403.2v62.1h-11.8v-62.1H225.2z"/>
		<path id="XMLID_468_" class="st0" d="M293.9,403.2v62.1h-20l-17.7-34.1c-0.9-1.7-2.3-4.7-4.1-8.9l-2-4.5l-2-4.5h-0.5l0.2,4.1
			l0.1,4l0.1,8.1v35.6h-11.8v-62.1h20l16.1,31.5c1.4,2.8,3.1,6.2,5,10.1l2.4,5l2.4,5.1h0.4l-0.1-4l-0.1-4l-0.1-8v-35.7H293.9z"/>
		<path id="XMLID_466_" class="st0" d="M316.6,403.2v51.5h29.1v10.6h-40.9v-62.1H316.6z"/>
		<path id="XMLID_463_" class="st0" d="M389.2,453.4h-26.8l-3.9,11.9h-12.5l20.6-62.1h17.7l21,62.1h-12.2L389.2,453.4z M386.5,444.7
			l-10.7-32.3l-10.6,32.3H386.5z"/>
		<path id="XMLID_459_" class="st0" d="M410.8,465.3v-62.1h30.5c7.2,0,12,1.1,14.6,3.4c2.6,2.3,3.9,6.6,3.9,12.9
			c0,7.7-3,12.2-9.1,13.6v0.2c7.1,1.1,10.6,6,10.6,14.8c0,6.3-1.4,10.8-4.1,13.3c-2.7,2.5-7.5,3.8-14.3,3.8H410.8z M422.5,429.3
			h14.4c4.7,0,7.6-0.5,8.9-1.5c1.3-1,1.9-3.4,1.9-7.1c0-5-2.8-7.5-8.5-7.5h-16.8V429.3z M422.5,455.4h12.9l4.1-0.1
			c4,0,6.6-0.6,7.8-1.7c1.3-1.1,1.9-3.5,1.9-7.1c0-3.8-0.7-6.1-2-7.1c-1.3-1-4.6-1.5-9.8-1.5h-15.1V455.4z"/>
	</g>
	<g id="XMLID_51_">
		<path id="XMLID_455_" class="st0" d="M156.5,485.6V468h7.1h0.9c2.4,0,4,0.4,4.8,1.2c0.8,0.8,1.2,2.4,1.2,4.8
			c0,2.3-0.4,3.9-1.2,4.7c-0.8,0.8-2.4,1.2-4.8,1.2l-0.8,0h-3.9v5.7H156.5z M159.8,477.1h3.8c1.5,0,2.5-0.2,2.9-0.5
			c0.4-0.3,0.6-1.2,0.6-2.5c0-1.5-0.2-2.4-0.5-2.8c-0.3-0.4-1.2-0.5-2.6-0.5h-4.1V477.1z"/>
		<path id="XMLID_452_" class="st0" d="M180.4,481.6h3v0.5c0,2.4-1.8,3.6-5.4,3.6c-2.4,0-4-0.4-4.8-1.2c-0.8-0.8-1.1-2.6-1.1-5.3
			c0-2.4,0.4-4,1.2-4.8c0.8-0.8,2.3-1.2,4.6-1.2c2.2,0,3.7,0.4,4.4,1.2c0.7,0.8,1.1,2.4,1.1,4.7v0.9H175c0,0.3,0,0.5,0,0.5
			c0,1.2,0.2,2,0.6,2.4c0.4,0.4,1.1,0.6,2.2,0.6c1.1,0,1.8-0.1,2.1-0.4C180.2,482.9,180.4,482.4,180.4,481.6z M180.4,478.2l0-0.5
			c0-1-0.2-1.6-0.5-1.9c-0.3-0.3-1.1-0.4-2.2-0.4c-1.1,0-1.8,0.2-2.1,0.5c-0.3,0.4-0.5,1.1-0.5,2.3H180.4z"/>
		<path id="XMLID_450_" class="st0" d="M185.9,473.3h2.9l-0.2,1.7l0.1,0c0.7-1.3,1.8-1.9,3.3-1.9c2.2,0,3.2,1.4,3.2,4.1v0.9h-2.8
			c0-0.3,0.1-0.6,0.1-0.7c0-1.3-0.5-2-1.5-2c-1.5,0-2.2,1-2.2,2.9v7.2h-2.9V473.3z"/>
		<path id="XMLID_448_" class="st0" d="M204.7,480.9h2.9v0.4l-0.2,1.9c-0.4,1.7-2.1,2.5-5.3,2.5c-2.3,0-3.8-0.4-4.6-1.3
			c-0.8-0.8-1.1-2.5-1.1-5c0-2.5,0.4-4.1,1.1-5c0.8-0.9,2.2-1.3,4.4-1.3c2.1,0,3.6,0.3,4.3,0.9c0.8,0.6,1.1,1.8,1.1,3.5h-2.9
			c0-1.4-0.8-2.1-2.5-2.1c-1.2,0-1.9,0.2-2.2,0.7c-0.3,0.5-0.4,1.6-0.4,3.3c0,1.7,0.2,2.8,0.5,3.2c0.3,0.4,1.1,0.7,2.4,0.7
			c1,0,1.7-0.2,1.9-0.5C204.5,482.6,204.7,481.9,204.7,480.9z"/>
		<path id="XMLID_177_" class="st0" d="M217.7,481.6h3v0.5c0,2.4-1.8,3.6-5.4,3.6c-2.4,0-4-0.4-4.8-1.2c-0.8-0.8-1.1-2.6-1.1-5.3
			c0-2.4,0.4-4,1.2-4.8c0.8-0.8,2.3-1.2,4.6-1.2c2.2,0,3.7,0.4,4.4,1.2c0.7,0.8,1.1,2.4,1.1,4.7v0.9h-8.3c0,0.3,0,0.5,0,0.5
			c0,1.2,0.2,2,0.6,2.4c0.4,0.4,1.1,0.6,2.2,0.6c1.1,0,1.8-0.1,2.1-0.4C217.5,482.9,217.7,482.4,217.7,481.6z M217.7,478.2l0-0.5
			c0-1-0.2-1.6-0.5-1.9c-0.3-0.3-1.1-0.4-2.2-0.4c-1.1,0-1.8,0.2-2.1,0.5c-0.3,0.4-0.5,1.1-0.5,2.3H217.7z"/>
		<path id="XMLID_174_" class="st0" d="M223.1,473.3h3l-0.1,1.8l0.1,0c0.7-1.3,2-2,4-2c1.8,0,3,0.4,3.7,1.3c0.7,0.9,1,2.5,1,4.8
			c0,2.4-0.3,4.1-1,5c-0.7,0.9-1.9,1.4-3.7,1.4c-1.9,0-3.2-0.6-3.8-1.9h-0.1v7h-3.1V473.3z M228.9,475.5c-1.1,0-1.9,0.3-2.2,0.8
			c-0.3,0.5-0.5,1.6-0.5,3.2c0,1.6,0.2,2.6,0.6,3.2c0.4,0.5,1.1,0.8,2.2,0.8c1.1,0,1.9-0.2,2.2-0.7c0.3-0.5,0.5-1.6,0.5-3.2
			c0-1.7-0.2-2.8-0.5-3.2C230.8,475.7,230.1,475.5,228.9,475.5z"/>
		<path id="XMLID_172_" class="st0" d="M245.1,473.3v2.2h-4.7v6.2c0,1.1,0.4,1.7,1.3,1.7c1,0,1.4-0.7,1.4-2.1v-0.5h2.5v0.6
			c0,0.6,0,1-0.1,1.5c-0.2,1.9-1.6,2.8-4.2,2.8c-2.6,0-3.9-1.2-3.9-3.6v-6.6h-1.6v-2.2h1.6v-2.7h2.9v2.7H245.1z"/>
		<path id="XMLID_169_" class="st0" d="M250.1,468v2.5h-2.9V468H250.1z M250.1,473.3v12.3h-2.9v-12.3H250.1z"/>
		<path id="XMLID_166_" class="st0" d="M258.4,473.1c2.4,0,3.9,0.4,4.7,1.1c0.7,0.8,1.1,2.4,1.1,4.8c0,2.7-0.4,4.5-1.1,5.4
			s-2.2,1.3-4.5,1.3c-2.5,0-4.1-0.4-4.9-1.2c-0.7-0.8-1.1-2.5-1.1-5.2c0-2.6,0.4-4.2,1.1-5C254.4,473.5,256,473.1,258.4,473.1z
			 M258.4,475.5c-1.2,0-2,0.2-2.3,0.7c-0.3,0.4-0.5,1.5-0.5,3.1c0,1.8,0.2,3,0.5,3.5c0.3,0.5,1.1,0.7,2.4,0.7c1.2,0,2-0.2,2.3-0.7
			c0.3-0.5,0.5-1.7,0.5-3.5c0-1.6-0.2-2.6-0.5-3C260.3,475.7,259.6,475.5,258.4,475.5z"/>
		<path id="XMLID_164_" class="st0" d="M266.6,473.3h2.9l-0.1,2.1l0.1,0c0.6-1.5,1.9-2.2,3.9-2.2c2.9,0,4.4,1.4,4.4,4.1v8.4h-2.9
			v-7.4v-0.5l-0.1-0.9c-0.1-0.9-0.9-1.4-2.2-1.4c-2,0-3,0.9-3,2.8v7.3h-2.9V473.3z"/>
		<path id="XMLID_161_" class="st0" d="M290.2,476.8h-3c0-1.5,0.3-2.5,1-3c0.7-0.5,2-0.7,4.1-0.7c2.2,0,3.7,0.3,4.5,0.9
			c0.8,0.6,1.2,1.8,1.2,3.5v8H295l0.1-1.7l-0.1,0c-0.6,1.2-1.9,1.8-3.9,1.8c-3,0-4.5-1.3-4.5-3.8c0-2.6,1.5-3.8,4.6-3.8
			c2,0,3.3,0.5,3.7,1.4h0.1v-2c0-1-0.2-1.6-0.5-1.9c-0.3-0.3-1-0.5-2.1-0.5C290.9,475.1,290.2,475.7,290.2,476.8z M292.1,480.1
			c-1.7,0-2.5,0.6-2.5,1.7c0,0.8,0.2,1.3,0.5,1.6c0.3,0.2,1.1,0.4,2.2,0.4c1.8,0,2.7-0.6,2.7-1.8C295,480.7,294.1,480.1,292.1,480.1
			z"/>
		<path id="XMLID_159_" class="st0" d="M300.9,473.3h2.9l-0.1,2.1l0.1,0c0.6-1.5,1.9-2.2,3.9-2.2c2.9,0,4.4,1.4,4.4,4.1v8.4H309
			v-7.4v-0.5l-0.1-0.9c-0.1-0.9-0.9-1.4-2.2-1.4c-2,0-3,0.9-3,2.8v7.3h-2.9V473.3z"/>
		<path id="XMLID_156_" class="st0" d="M325.7,468v17.5h-2.9l0.1-2l-0.1,0c-0.6,1.4-1.8,2.1-3.7,2.1c-1.9,0-3.2-0.4-3.9-1.3
			c-0.6-0.9-0.9-2.7-0.9-5.4c0-2.2,0.3-3.7,1-4.6c0.7-0.9,1.9-1.3,3.6-1.3c2,0,3.3,0.6,3.7,1.9l0.1,0v-7H325.7z M320,475.5
			c-1.1,0-1.8,0.2-2.1,0.7c-0.3,0.5-0.5,1.5-0.5,3c0,1.8,0.2,2.9,0.5,3.4c0.3,0.5,1.1,0.8,2.2,0.8c1.2,0,1.9-0.3,2.3-0.8
			c0.3-0.5,0.5-1.7,0.5-3.5c0-1.5-0.2-2.5-0.5-3C321.9,475.7,321.1,475.5,320,475.5z"/>
		<path id="XMLID_154_" class="st0" d="M338.6,468v17.5h-3.3V468H338.6z"/>
		<path id="XMLID_148_" class="st0" d="M341.6,473.3h2.9l-0.1,2.1l0.1,0c0.6-1.5,1.9-2.2,3.9-2.2c2.9,0,4.4,1.4,4.4,4.1v8.4h-2.9
			v-7.4v-0.5l-0.1-0.9c-0.1-0.9-0.9-1.4-2.2-1.4c-2,0-3,0.9-3,2.8v7.3h-2.9V473.3z"/>
		<path id="XMLID_115_" class="st0" d="M363.5,473.3v2.2h-4.7v6.2c0,1.1,0.4,1.7,1.3,1.7c1,0,1.4-0.7,1.4-2.1v-0.5h2.5v0.6
			c0,0.6,0,1-0.1,1.5c-0.2,1.9-1.6,2.8-4.2,2.8c-2.6,0-3.9-1.2-3.9-3.6v-6.6h-1.6v-2.2h1.6v-2.7h2.9v2.7H363.5z"/>
		<path id="XMLID_112_" class="st0" d="M373.5,481.6h3v0.5c0,2.4-1.8,3.6-5.4,3.6c-2.4,0-4-0.4-4.8-1.2s-1.1-2.6-1.1-5.3
			c0-2.4,0.4-4,1.2-4.8c0.8-0.8,2.3-1.2,4.6-1.2c2.2,0,3.7,0.4,4.4,1.2c0.7,0.8,1.1,2.4,1.1,4.7v0.9h-8.3c0,0.3,0,0.5,0,0.5
			c0,1.2,0.2,2,0.6,2.4c0.4,0.4,1.1,0.6,2.2,0.6c1.1,0,1.8-0.1,2.1-0.4C373.3,482.9,373.5,482.4,373.5,481.6z M373.5,478.2l0-0.5
			c0-1-0.2-1.6-0.5-1.9c-0.3-0.3-1.1-0.4-2.2-0.4c-1.1,0-1.8,0.2-2.1,0.5c-0.3,0.4-0.5,1.1-0.5,2.3H373.5z"/>
		<path id="XMLID_110_" class="st0" d="M381.8,468v17.5h-2.9V468H381.8z"/>
		<path id="XMLID_108_" class="st0" d="M387.7,468v17.5h-2.9V468H387.7z"/>
		<path id="XMLID_80_" class="st0" d="M393.5,468v2.5h-2.9V468H393.5z M393.5,473.3v12.3h-2.9v-12.3H393.5z"/>
		<path id="XMLID_77_" class="st0" d="M407.4,473.3v12.5c0,2-0.4,3.4-1.2,4.1c-0.8,0.7-2.3,1.1-4.5,1.1c-2.1,0-3.5-0.3-4.2-0.8
			c-0.7-0.6-1.1-1.7-1.1-3.4h2.9c0,0.8,0.1,1.3,0.4,1.5c0.3,0.2,1,0.3,2,0.3c1.8,0,2.7-0.8,2.7-2.3v-2.8l-0.1,0
			c-0.5,1.3-1.7,2-3.6,2c-1.9,0-3.1-0.4-3.8-1.3c-0.7-0.9-1-2.6-1-5c0-2.3,0.3-3.9,1-4.8c0.7-0.9,1.9-1.3,3.7-1.3
			c2,0,3.2,0.7,3.8,2.2h0.1l-0.1-2H407.4z M401.6,475.5c-1.1,0-1.9,0.2-2.2,0.7c-0.3,0.5-0.5,1.5-0.5,3.1c0,1.7,0.2,2.8,0.5,3.3
			c0.3,0.5,1.1,0.7,2.2,0.7s1.9-0.2,2.2-0.7s0.5-1.6,0.5-3.3c0-1.6-0.2-2.7-0.5-3.1C403.5,475.7,402.8,475.5,401.6,475.5z"/>
		<path id="XMLID_74_" class="st0" d="M418.2,481.6h3v0.5c0,2.4-1.8,3.6-5.4,3.6c-2.4,0-4-0.4-4.8-1.2s-1.1-2.6-1.1-5.3
			c0-2.4,0.4-4,1.2-4.8c0.8-0.8,2.3-1.2,4.6-1.2c2.2,0,3.7,0.4,4.4,1.2c0.7,0.8,1.1,2.4,1.1,4.7v0.9h-8.3c0,0.3,0,0.5,0,0.5
			c0,1.2,0.2,2,0.6,2.4c0.4,0.4,1.1,0.6,2.2,0.6c1.1,0,1.8-0.1,2.1-0.4C418,482.9,418.2,482.4,418.2,481.6z M418.2,478.2l0-0.5
			c0-1-0.2-1.6-0.5-1.9c-0.3-0.3-1.1-0.4-2.2-0.4c-1.1,0-1.8,0.2-2.1,0.5c-0.3,0.4-0.5,1.1-0.5,2.3H418.2z"/>
		<path id="XMLID_72_" class="st0" d="M423.6,473.3h2.9l-0.1,2.1l0.1,0c0.6-1.5,1.9-2.2,3.9-2.2c2.9,0,4.4,1.4,4.4,4.1v8.4h-2.9
			v-7.4v-0.5l-0.1-0.9c-0.1-0.9-0.9-1.4-2.2-1.4c-2,0-3,0.9-3,2.8v7.3h-2.9V473.3z"/>
		<path id="XMLID_70_" class="st0" d="M445.3,480.9h2.9v0.4l-0.2,1.9c-0.4,1.7-2.1,2.5-5.3,2.5c-2.3,0-3.8-0.4-4.6-1.3
			c-0.8-0.8-1.1-2.5-1.1-5c0-2.5,0.4-4.1,1.1-5c0.8-0.9,2.2-1.3,4.4-1.3c2.1,0,3.6,0.3,4.3,0.9c0.8,0.6,1.1,1.8,1.1,3.5h-2.9
			c0-1.4-0.8-2.1-2.5-2.1c-1.2,0-1.9,0.2-2.2,0.7c-0.3,0.5-0.4,1.6-0.4,3.3c0,1.7,0.2,2.8,0.5,3.2c0.3,0.4,1.1,0.7,2.4,0.7
			c1,0,1.7-0.2,1.9-0.5C445.2,482.6,445.3,481.9,445.3,480.9z"/>
		<path id="XMLID_67_" class="st0" d="M458.3,481.6h3v0.5c0,2.4-1.8,3.6-5.4,3.6c-2.4,0-4-0.4-4.8-1.2s-1.1-2.6-1.1-5.3
			c0-2.4,0.4-4,1.2-4.8c0.8-0.8,2.3-1.2,4.6-1.2c2.2,0,3.7,0.4,4.4,1.2c0.7,0.8,1.1,2.4,1.1,4.7v0.9H453c0,0.3,0,0.5,0,0.5
			c0,1.2,0.2,2,0.6,2.4c0.4,0.4,1.1,0.6,2.2,0.6c1.1,0,1.8-0.1,2.1-0.4C458.2,482.9,458.3,482.4,458.3,481.6z M458.4,478.2l0-0.5
			c0-1-0.2-1.6-0.5-1.9c-0.3-0.3-1.1-0.4-2.2-0.4c-1.1,0-1.8,0.2-2.1,0.5c-0.3,0.4-0.5,1.1-0.5,2.3H458.4z"/>
	</g>
</g>
<g id="XMLID_1_">
	<g id="XMLID_435_">
		<path id="XMLID_447_" class="st1" d="M291.7,324c0.1-1.6,0.1-3.6,0.2-5.1c-3.7-0.4-6.1-3.2-6.6-3.9
			C283,318.6,285.6,323.2,291.7,324z"/>
		<path id="XMLID_446_" class="st1" d="M332.4,314.8c-0.5,0.7-2.9,3.5-6.6,3.9c0.1,1.5,0.1,3.5,0.2,5.1
			C332,323.1,334.6,318.5,332.4,314.8z"/>
		<path id="XMLID_445_" class="st1" d="M313.3,305.7c12.4,7.1,16.9,0.5,16.9,0.5s4.5,5.4-3.3,7.5c-8.2,2.2-13.8-2.8-15.1-3.8
			C309.3,308.1,308.8,303.1,313.3,305.7z"/>
		<path id="XMLID_444_" class="st1" d="M319.9,299.2c4.7,2.9,6.3,3,6.3,3s-0.2,4.9-7.2,2.2c-2.5-1-10.1-5.2-8.8-7
			C312.3,294.5,316,296.9,319.9,299.2z"/>
		<path id="XMLID_443_" class="st1" d="M304.4,305.7c-12.4,7.1-16.7,0.5-16.7,0.5s-4.7,5.4,3.1,7.5c8.2,2.2,13.8-2.8,15.1-3.8
			C308.3,308.1,308.8,303.1,304.4,305.7z"/>
		<path id="XMLID_442_" class="st1" d="M297.8,299.2c-4.7,2.9-6.1,3-6.1,3s0,4.9,7,2.2c2.5-1,10-5.2,8.8-7
			C305.3,294.5,301.6,296.9,297.8,299.2z"/>
		<path id="XMLID_436_" class="st1" d="M323.1,326.3c-0.2-2.1-0.5-5.9-0.6-7.9c-5.8,0-12-4.4-13.7-7.2c-1.7,2.8-7.9,7.2-13.7,7.2
			c-0.1,2-0.4,5.8-0.6,7.9c-0.4,3.8,1,7.8,3.5,10.7c1.3,1.5,3,2.9,4.8,3.8c0.2,0.1,0.3,0.1,0.5,0.2l0.9,0.4c0.5,0.3,0.8,0.6,1.3,1
			c1.3,1,3.2,0.9,3.3,0.9c0.1,0,2,0.1,3.3-0.9c0.5-0.4,0.8-0.7,1.3-1l0.9-0.4c0.2-0.1,0.3-0.1,0.5-0.2c1.8-0.8,3.5-2.3,4.8-3.8
			C322.1,334.1,323.5,330.1,323.1,326.3z M308.9,329c1.4,0,2.6,0.6,2.6,1.1c0,0.5-1.2,1.1-2.6,1.1c-1.4,0-2.6-0.6-2.6-1.1
			C306.3,329.6,307.5,329,308.9,329z M302,324.7c-4.5,0-4.2-1.1-4.3-1.5c0,0,1.2-2.3,4.4-2.3c3.2,0,4,2.8,4,2.8
			S305.3,324.7,302,324.7z M308.9,337.4c-2.8,0-5-2.3-5-3c0-0.7,10.1-0.7,10.1,0C313.9,335.1,311.7,337.4,308.9,337.4z M315.6,324.7
			c-3.3,0-4-1-4-1s0.8-2.8,4-2.8c3.2,0,4.3,2.3,4.3,2.3C319.9,323.6,320.1,324.7,315.6,324.7z"/>
	</g>
	<g id="XMLID_433_">
		<polygon id="XMLID_434_" class="st0" points="237.7,313.8 256.2,313.8 262.2,307.8 275.3,307.8 276.2,307.8 276.2,305.4 
			275,305.4 261.1,305.4 255.1,311.3 238,311.3 		"/>
	</g>
	<g id="XMLID_431_">
		<path id="XMLID_432_" class="st0" d="M264.3,320.8v-2.6h-26.8c-0.1,0.5-0.1,0.9-0.1,1.4c0,0.4,0,0.8,0.1,1.2H264.3z"/>
	</g>
	<g id="XMLID_429_">
		<path id="XMLID_430_" class="st0" d="M264.7,296.6l-1.7-1.7l-0.9,0.9l-6,6h-16c-0.2,0.8-0.5,1.7-0.6,2.6h17.6l6.8-6.8L264.7,296.6
			z"/>
	</g>
	<g id="XMLID_424_">
		<path id="XMLID_425_" class="st0" d="M284.2,306.3c0-2.6-2.1-4.6-4.6-4.6c-2.2,0-4.1,1.6-4.5,3.7c-0.1,0.4-0.1,0.6-0.1,0.9
			c0,0.5,0.1,1,0.3,1.5c0.6,1.9,2.3,3,4.3,3C282.1,310.8,284.2,308.9,284.2,306.3z M282.1,306.3c0,1.4-1.2,2.6-2.6,2.6
			c-1.4,0-2.7-1.2-2.7-2.6c0-1.4,1.3-2.6,2.7-2.6C281,303.7,282.1,304.9,282.1,306.3z"/>
	</g>
	<g id="XMLID_419_">
		<path id="XMLID_420_" class="st0" d="M272.6,319.5c0-2.6-2.1-4.6-4.6-4.6c-2.1,0-3.9,1.4-4.4,3.4c-0.1,0.5-0.2,0.8-0.2,1.3
			c0,0.5,0.1,0.8,0.2,1.3c0.5,2,2.3,3.4,4.4,3.4C270.5,324.2,272.6,322.1,272.6,319.5z M270.5,319.5c0,1.4-1.2,2.7-2.6,2.7
			c-1.4,0-2.7-1.3-2.7-2.7c0-1.4,1.3-2.6,2.7-2.6C269.4,317,270.5,318.1,270.5,319.5z"/>
	</g>
	<g id="XMLID_414_">
		<path id="XMLID_415_" class="st0" d="M270.6,293.4c0-2.6-2.1-4.6-4.6-4.6c-2.6,0-4.6,2.1-4.6,4.6c0,0.8,0.4,1.6,0.7,2.3
			c0.5,0.7,1,1.4,1.9,1.7c0.6,0.4,1.4,0.6,2.1,0.6C268.5,298.1,270.6,296,270.6,293.4z M268.7,293.4c0,1.5-1.3,2.5-2.7,2.5
			c-1.4,0-2.6-1-2.6-2.5c0-1.4,1.2-2.6,2.6-2.6C267.4,290.9,268.7,292,268.7,293.4z"/>
	</g>
	<g id="XMLID_412_">
		<polygon id="XMLID_413_" class="st0" points="237.7,325.1 256.2,325.1 262.2,331.1 275.3,331.1 276.2,331.1 276.2,333.6 
			275,333.6 261.1,333.6 255.1,327.7 238,327.7 		"/>
	</g>
	<g id="XMLID_410_">
		<path id="XMLID_411_" class="st0" d="M264.7,342.4l-1.7,1.7l-0.9-0.9l-6-6h-16c-0.2-0.8-0.5-1.7-0.6-2.6h17.6l6.8,6.8L264.7,342.4
			z"/>
	</g>
	<g id="XMLID_405_">
		<path id="XMLID_406_" class="st0" d="M279.6,328.1c-2,0-3.7,1.2-4.3,3c-0.2,0.5-0.3,1-0.3,1.5c0,0.3,0,0.6,0.1,0.9
			c0.5,2.1,2.3,3.7,4.5,3.7c2.6,0,4.6-2.1,4.6-4.6S282.1,328.1,279.6,328.1z M279.6,335.2c-1.4,0-2.7-1.2-2.7-2.6
			c0-1.4,1.3-2.6,2.7-2.6c1.4,0,2.6,1.2,2.6,2.6C282.1,334,281,335.2,279.6,335.2z"/>
	</g>
	<g id="XMLID_400_">
		<path id="XMLID_401_" class="st0" d="M266,340.9c-0.7,0-1.5,0.2-2.1,0.6c-0.8,0.3-1.4,1-1.9,1.7c-0.3,0.7-0.7,1.5-0.7,2.3
			c0,2.6,2.1,4.6,4.6,4.6c2.5,0,4.6-2.1,4.6-4.6C270.6,343,268.5,340.9,266,340.9z M266,348.1c-1.4,0-2.6-1.2-2.6-2.6
			c0-1.5,1.2-2.5,2.6-2.5c1.4,0,2.7,1,2.7,2.5C268.7,346.9,267.4,348.1,266,348.1z"/>
	</g>
	<g id="XMLID_398_">
		<polygon id="XMLID_399_" class="st0" points="303.1,390.8 303.1,372.3 297.1,366.3 297.1,353.2 297.1,352.3 294.6,352.3 
			294.6,353.5 294.6,367.4 300.5,373.4 300.5,390.5 		"/>
	</g>
	<g id="XMLID_396_">
		<path id="XMLID_397_" class="st0" d="M310,364.3h-2.6v26.8c0.5,0.1,0.9,0.1,1.4,0.1c0.4,0,0.8,0,1.2-0.1V364.3z"/>
	</g>
	<g id="XMLID_394_">
		<path id="XMLID_395_" class="st0" d="M285.8,363.8l-1.7,1.7l0.9,0.9l6,6v16c0.8,0.2,1.7,0.5,2.6,0.6v-17.6l-6.8-6.8L285.8,363.8z"
			/>
	</g>
	<g id="XMLID_389_">
		<path id="XMLID_390_" class="st0" d="M295.5,344.3c-2.6,0-4.6,2.1-4.6,4.6c0,2.2,1.6,4.1,3.7,4.5c0.4,0.1,0.6,0.1,0.9,0.1
			c0.5,0,1-0.1,1.5-0.3c1.9-0.6,3-2.3,3-4.3C300.1,346.4,298.1,344.3,295.5,344.3z M295.5,346.4c1.4,0,2.6,1.2,2.6,2.6
			c0,1.4-1.2,2.7-2.6,2.7c-1.4,0-2.6-1.3-2.6-2.7C293,347.5,294.2,346.4,295.5,346.4z"/>
	</g>
	<g id="XMLID_384_">
		<path id="XMLID_385_" class="st0" d="M308.8,355.9c-2.6,0-4.6,2.1-4.6,4.6c0,2.1,1.4,3.9,3.4,4.4c0.5,0.1,0.8,0.2,1.3,0.2
			c0.5,0,0.8-0.1,1.3-0.2c2-0.5,3.4-2.3,3.4-4.4C313.4,358,311.3,355.9,308.8,355.9z M308.8,358c1.4,0,2.7,1.2,2.7,2.6
			c0,1.4-1.3,2.7-2.7,2.7c-1.4,0-2.6-1.3-2.6-2.7C306.2,359.2,307.4,358,308.8,358z"/>
	</g>
	<g id="XMLID_379_">
		<path id="XMLID_380_" class="st0" d="M282.7,357.9c-2.6,0-4.6,2.1-4.6,4.6c0,2.6,2.1,4.6,4.6,4.6c0.8,0,1.6-0.4,2.3-0.7
			c0.7-0.5,1.4-1,1.7-1.9c0.4-0.6,0.6-1.4,0.6-2.1C287.3,360,285.2,357.9,282.7,357.9z M282.7,359.8c1.5,0,2.5,1.3,2.5,2.7
			c0,1.4-1,2.6-2.5,2.6c-1.4,0-2.6-1.2-2.6-2.6C280.1,361.1,281.3,359.8,282.7,359.8z"/>
	</g>
	<g id="XMLID_377_">
		<polygon id="XMLID_378_" class="st0" points="314.3,390.8 314.3,372.3 320.4,366.3 320.4,353.2 320.4,352.3 322.8,352.3 
			322.8,353.5 322.8,367.4 316.9,373.4 316.9,390.5 		"/>
	</g>
	<g id="XMLID_375_">
		<path id="XMLID_376_" class="st0" d="M331.6,363.8l1.7,1.7l-0.9,0.9l-6,6v16c-0.8,0.2-1.7,0.5-2.6,0.6v-17.6l6.8-6.8L331.6,363.8z
			"/>
	</g>
	<g id="XMLID_370_">
		<path id="XMLID_371_" class="st0" d="M317.4,348.9c0,2,1.2,3.7,3,4.3c0.5,0.2,1,0.3,1.5,0.3c0.3,0,0.6,0,0.9-0.1
			c2.1-0.5,3.7-2.3,3.7-4.5c0-2.6-2.1-4.6-4.6-4.6S317.4,346.4,317.4,348.9z M324.4,348.9c0,1.4-1.2,2.7-2.6,2.7
			c-1.4,0-2.6-1.3-2.6-2.7c0-1.4,1.2-2.6,2.6-2.6C323.3,346.4,324.4,347.5,324.4,348.9z"/>
	</g>
	<g id="XMLID_365_">
		<path id="XMLID_366_" class="st0" d="M330.1,362.5c0,0.7,0.2,1.5,0.6,2.1c0.3,0.8,1,1.4,1.7,1.9c0.7,0.3,1.5,0.7,2.3,0.7
			c2.6,0,4.6-2.1,4.6-4.6c0-2.5-2.1-4.6-4.6-4.6C332.2,357.9,330.1,360,330.1,362.5z M337.3,362.5c0,1.4-1.2,2.6-2.6,2.6
			c-1.5,0-2.5-1.2-2.5-2.6c0-1.4,1-2.7,2.5-2.7C336.2,359.8,337.3,361.1,337.3,362.5z"/>
	</g>
	
		<rect id="XMLID_364_" x="265.1" y="353" transform="matrix(-0.712 -0.7022 0.7022 -0.712 220.5182 798.929)" class="st0" width="17.9" height="2.6"/>
	<polygon id="XMLID_363_" class="st0" points="280,335.5 292.8,348.1 294.6,346.3 282.8,334.7 	"/>
	<g id="XMLID_361_">
		<polygon id="XMLID_362_" class="st0" points="380.1,313.8 361.5,313.8 355.6,307.8 342.5,307.8 341.5,307.8 341.5,305.4 
			342.7,305.4 356.6,305.4 362.7,311.3 379.7,311.3 		"/>
	</g>
	<g id="XMLID_359_">
		<path id="XMLID_360_" class="st0" d="M353.5,320.8v-2.6h26.8c0.1,0.5,0.1,0.9,0.1,1.4c0,0.4,0,0.8-0.1,1.2H353.5z"/>
	</g>
	<g id="XMLID_357_">
		<path id="XMLID_358_" class="st0" d="M353,296.6l1.7-1.7l0.9,0.9l6,6h16c0.2,0.8,0.5,1.7,0.6,2.6h-17.6l-6.8-6.8L353,296.6z"/>
	</g>
	<g id="XMLID_352_">
		<path id="XMLID_353_" class="st0" d="M338.2,310.8c2,0,3.7-1.2,4.3-3c0.2-0.5,0.3-1,0.3-1.5c0-0.3,0-0.6-0.1-0.9
			c-0.5-2.1-2.3-3.7-4.5-3.7c-2.6,0-4.6,2.1-4.6,4.6C333.5,308.9,335.6,310.8,338.2,310.8z M338.2,303.7c1.4,0,2.7,1.2,2.7,2.6
			c0,1.4-1.3,2.6-2.7,2.6c-1.4,0-2.6-1.2-2.6-2.6C335.6,304.9,336.8,303.7,338.2,303.7z"/>
	</g>
	<g id="XMLID_347_">
		<path id="XMLID_348_" class="st0" d="M349.8,324.2c2.1,0,3.9-1.4,4.4-3.4c0.1-0.5,0.2-0.8,0.2-1.3c0-0.5-0.1-0.8-0.2-1.3
			c-0.5-2-2.3-3.4-4.4-3.4c-2.6,0-4.6,2.1-4.6,4.6C345.1,322.1,347.2,324.2,349.8,324.2z M349.8,317c1.4,0,2.7,1.2,2.7,2.6
			c0,1.4-1.3,2.7-2.7,2.7c-1.4,0-2.6-1.3-2.6-2.7C347.2,318.1,348.4,317,349.8,317z"/>
	</g>
	<g id="XMLID_342_">
		<path id="XMLID_343_" class="st0" d="M351.8,298.1c0.7,0,1.5-0.2,2.1-0.6c0.8-0.3,1.4-1,1.9-1.7c0.3-0.7,0.7-1.5,0.7-2.3
			c0-2.6-2.1-4.6-4.6-4.6c-2.5,0-4.6,2.1-4.6,4.6C347.1,296,349.2,298.1,351.8,298.1z M351.8,290.9c1.4,0,2.6,1.2,2.6,2.6
			c0,1.5-1.2,2.5-2.6,2.5c-1.4,0-2.7-1-2.7-2.5C349.1,292,350.4,290.9,351.8,290.9z"/>
	</g>
	<g id="XMLID_340_">
		<polygon id="XMLID_341_" class="st0" points="380.1,325.1 361.5,325.1 355.6,331.1 342.5,331.1 341.5,331.1 341.5,333.6 
			342.7,333.6 356.6,333.6 362.7,327.7 379.7,327.7 		"/>
	</g>
	<g id="XMLID_338_">
		<path id="XMLID_339_" class="st0" d="M353,342.4l1.7,1.7l0.9-0.9l6-6h16c0.2-0.8,0.5-1.7,0.6-2.6h-17.6l-6.8,6.8L353,342.4z"/>
	</g>
	<g id="XMLID_333_">
		<path id="XMLID_334_" class="st0" d="M333.5,332.7c0,2.6,2.1,4.6,4.6,4.6c2.2,0,4.1-1.6,4.5-3.7c0.1-0.4,0.1-0.6,0.1-0.9
			c0-0.5-0.1-1-0.3-1.5c-0.6-1.9-2.3-3-4.3-3C335.6,328.1,333.5,330.1,333.5,332.7z M335.6,332.7c0-1.4,1.2-2.6,2.6-2.6
			c1.4,0,2.7,1.2,2.7,2.6c0,1.4-1.3,2.6-2.7,2.6C336.8,335.2,335.6,334,335.6,332.7z"/>
	</g>
	<g id="XMLID_328_">
		<path id="XMLID_329_" class="st0" d="M347.1,345.5c0,2.6,2.1,4.6,4.6,4.6c2.6,0,4.6-2.1,4.6-4.6c0-0.8-0.4-1.6-0.7-2.3
			c-0.5-0.7-1-1.4-1.9-1.7c-0.6-0.4-1.4-0.6-2.1-0.6C349.2,340.9,347.1,343,347.1,345.5z M349.1,345.5c0-1.5,1.3-2.5,2.7-2.5
			c1.4,0,2.6,1,2.6,2.5c0,1.4-1.2,2.6-2.6,2.6C350.4,348.1,349.1,346.9,349.1,345.5z"/>
	</g>
	
		<rect id="XMLID_327_" x="334.7" y="353" transform="matrix(0.712 -0.7022 0.7022 0.712 -149.7698 343.3239)" class="st0" width="17.9" height="2.6"/>
	<polygon id="XMLID_326_" class="st0" points="337.7,335.5 325,348.1 323.2,346.3 334.9,334.7 	"/>
	<g id="XMLID_324_">
		<polygon id="XMLID_325_" class="st0" points="287.5,251.1 287.5,271.6 281.4,277.6 281.4,290.7 281.4,291.6 279,291.6 279,290.4 
			279,276.5 284.9,270.5 284.9,252 		"/>
	</g>
	<g id="XMLID_322_">
		<path id="XMLID_323_" class="st0" d="M268.6,280.7l-1.7-1.7l0.9-0.9l6-6l0-15.1c0.7-0.4,1.8-1.1,2.6-1.4v17.5l-6.8,6.8
			L268.6,280.7z"/>
	</g>
	<g id="XMLID_317_">
		<path id="XMLID_318_" class="st0" d="M284.4,295c0-2-1.2-3.7-3-4.3c-0.5-0.2-1-0.3-1.5-0.3c-0.3,0-0.6,0-0.9,0.1
			c-2.1,0.5-3.7,2.3-3.7,4.5c0,2.6,2.1,4.6,4.6,4.6S284.4,297.5,284.4,295z M277.4,295c0-1.4,1.2-2.7,2.6-2.7s2.6,1.3,2.6,2.7
			c0,1.4-1.2,2.6-2.6,2.6S277.4,296.4,277.4,295z"/>
	</g>
	<g id="XMLID_312_">
		<path id="XMLID_313_" class="st0" d="M270.1,282c0-0.7-0.2-1.5-0.6-2.1c-0.3-0.8-1-1.4-1.7-1.9c-0.7-0.3-1.5-0.7-2.3-0.7
			c-2.6,0-4.6,2.1-4.6,4.6c0,2.5,2.1,4.6,4.6,4.6C268.1,286.6,270.1,284.6,270.1,282z M263,282c0-1.4,1.2-2.6,2.6-2.6
			c1.5,0,2.5,1.2,2.5,2.6c0,1.4-1,2.7-2.5,2.7C264.1,284.7,263,283.4,263,282z"/>
	</g>
	<g id="XMLID_310_">
		<polygon id="XMLID_311_" class="st0" points="329.9,251.1 329.9,271.6 335.9,277.6 335.9,290.7 335.9,291.6 338.3,291.6 
			338.3,290.4 338.3,276.5 332.4,270.5 332.4,252 		"/>
	</g>
	<g id="XMLID_308_">
		<path id="XMLID_309_" class="st0" d="M348.7,280.7l1.7-1.7l-0.9-0.9l-6-6l0-15.1c-0.7-0.4-1.8-1.1-2.6-1.4v17.5l6.8,6.8
			L348.7,280.7z"/>
	</g>
	<g id="XMLID_303_">
		<path id="XMLID_304_" class="st0" d="M337.4,299.6c2.6,0,4.6-2.1,4.6-4.6c0-2.2-1.6-4.1-3.7-4.5c-0.4-0.1-0.6-0.1-0.9-0.1
			c-0.5,0-1,0.1-1.5,0.3c-1.9,0.6-3,2.3-3,4.3C332.9,297.5,334.8,299.6,337.4,299.6z M337.4,297.5c-1.4,0-2.6-1.2-2.6-2.6
			c0-1.4,1.2-2.7,2.6-2.7c1.4,0,2.6,1.3,2.6,2.7C340,296.4,338.8,297.5,337.4,297.5z"/>
	</g>
	<g id="XMLID_298_">
		<path id="XMLID_299_" class="st0" d="M351.8,286.6c2.6,0,4.6-2.1,4.6-4.6c0-2.6-2.1-4.6-4.6-4.6c-0.8,0-1.6,0.4-2.3,0.7
			c-0.7,0.5-1.4,1-1.7,1.9c-0.4,0.6-0.6,1.4-0.6,2.1C347.2,284.6,349.3,286.6,351.8,286.6z M351.8,284.7c-1.5,0-2.5-1.3-2.5-2.7
			c0-1.4,1-2.6,2.5-2.6c1.4,0,2.6,1.2,2.6,2.6C354.4,283.4,353.2,284.7,351.8,284.7z"/>
	</g>
	<g id="XMLID_296_">
		<path id="XMLID_297_" class="st0" d="M319.6,285.3l1.7-1.7l-0.9-0.9l-6-6l0-11.5c-0.2,0-1.7-0.2-2.6-0.1v12.7l6.8,6.8L319.6,285.3
			z"/>
	</g>
	<g id="XMLID_291_">
		<path id="XMLID_292_" class="st0" d="M322.7,291.2c2.6,0,4.6-2.1,4.6-4.6c0-2.6-2.1-4.6-4.6-4.6c-0.8,0-1.6,0.4-2.3,0.7
			c-0.7,0.5-1.4,1-1.7,1.9c-0.4,0.6-0.6,1.4-0.6,2.1C318.1,289.1,320.2,291.2,322.7,291.2z M322.7,289.2c-1.5,0-2.5-1.3-2.5-2.7
			c0-1.4,1-2.6,2.5-2.6c1.4,0,2.6,1.2,2.6,2.6C325.3,287.9,324.1,289.2,322.7,289.2z"/>
	</g>
	<g id="XMLID_289_">
		<path id="XMLID_290_" class="st0" d="M297.6,285.3l-1.7-1.7l0.9-0.9l6-6l0-11.5c0.2,0,1.7-0.2,2.6-0.1v12.7l-6.8,6.8L297.6,285.3z
			"/>
	</g>
	<g id="XMLID_284_">
		<path id="XMLID_285_" class="st0" d="M299.1,286.6c0-0.7-0.2-1.5-0.6-2.1c-0.3-0.8-1-1.4-1.7-1.9c-0.7-0.3-1.5-0.7-2.3-0.7
			c-2.6,0-4.6,2.1-4.6,4.6c0,2.5,2.1,4.6,4.6,4.6C297,291.2,299.1,289.1,299.1,286.6z M291.9,286.6c0-1.4,1.2-2.6,2.6-2.6
			c1.5,0,2.5,1.2,2.5,2.6c0,1.4-1,2.7-2.5,2.7C293.1,289.2,291.9,287.9,291.9,286.6z"/>
	</g>
	<g id="XMLID_282_">
		<polygon id="XMLID_283_" class="st0" points="380.1,314.2 361.5,314.2 355.6,308.1 342.5,308.1 341.5,308.1 341.5,305.7 
			342.7,305.7 356.6,305.7 362.7,311.6 379.7,311.6 		"/>
	</g>
	<g id="XMLID_255_">
		<path id="XMLID_276_" class="st0" d="M338.2,311.2c2,0,3.7-1.2,4.3-3c0.2-0.5,0.3-1,0.3-1.5c0-0.3,0-0.6-0.1-0.9
			c-0.5-2.1-2.3-3.7-4.5-3.7c-2.6,0-4.6,2.1-4.6,4.6S335.6,311.2,338.2,311.2z M338.2,304.1c1.4,0,2.7,1.2,2.7,2.6s-1.3,2.6-2.7,2.6
			c-1.4,0-2.6-1.2-2.6-2.6S336.8,304.1,338.2,304.1z"/>
	</g>
</g>
</svg>
